PathFileType	4	(X/Y/Z)	C:\Users\°ÂÌØÂü\Desktop\20210112\bx_n_10_502-Unnamed.trc
DataRate	CameraRate	NumFrames	NumMarkers	Units	OrigDataRate	OrigDataStartFrame	OrigNumFrames
50.00	50.00	       5	0	mm	50.00	119	       473
Frame#	Time	
		

119	2.360	-373.00534	267.84918	1143.18469	-766.27502	234.16397	997.49475	-868.56500	291.41397	863.60242	-759.27875	-6.05284	804.95544	-761.70782	209.99690	812.03046	-843.83289	284.65479	727.84070	-846.68378	256.94806	624.19019	-797.26984	146.92700	570.85126	-932.90851	93.46803	1098.00354	-830.98212	252.41655	562.89581	-755.47174	16.76716	525.82153	-851.24188	265.61499	483.18985	-769.62219	208.58702	535.88055	-772.35565	-9.34597	976.65771	-721.49353	158.93456	222.40187	-773.28430	231.71716	201.20332	-882.76282	295.86240	144.44260	-673.15753	50.79685	162.52010	-676.75732	175.95940	162.62617	-593.66809	219.46405	173.56059	-660.02594	298.82895	156.41168	-623.23291	307.04605	158.28157	-557.42523	254.08025	163.48494	-528.01398	304.09464	146.27768	-122.21957	124.28386	1297.54077	-727.15552	64.17285	218.81880	-517.70691	-72.69338	142.70706	-549.82251	-26.38976	163.57941	-798.67554	181.96265	181.29213				-794.24316	34.54607	172.22687	-799.00439	72.94992	567.00751	-835.89984	-49.99797	473.07288	-599.05792	25.92806	166.39034	-762.63599	-24.28800	202.37555	-875.80023	-78.62018	141.04199	-849.92792	-75.44293	859.85040	-841.42719	-66.56921	744.24036	-606.30322	-75.53851	156.82199	-648.04657	-68.64867	160.94797	-355.05328	-57.12014	1149.68481							-819.72272	-36.65741	607.63501	-815.71912	-34.85499	560.24548	
120	2.380	-373.45465	267.56113	1141.83582	-767.32153	233.79611	997.24500	-869.07294	291.30646	863.66107	-760.06635	-6.28686	804.89911	-762.58563	209.75479	812.17926	-844.26489	284.62790	727.85364	-847.13824	257.05447	624.32758				-933.47144	93.64902	1097.78687	-831.36353	251.90060	562.62555	-755.82758	16.94190	525.82410	-851.54169	265.45264	483.15991	-769.86591	208.66690	535.89301	-772.96997	-9.30750	976.67493	-721.26587	159.17691	222.30315	-772.88684	231.64362	201.11392	-882.70605	296.09628	144.72354	-673.42157	51.01097	162.24001	-676.92291	176.25970	162.46300	-593.82758	219.52325	173.39127	-660.02594	298.82895	156.41168	-623.16797	307.10092	158.36880	-557.59283	254.01656	163.38309	-527.94086	304.11801	146.27614	-123.20246	124.16377	1296.37012	-726.94604	64.32613	218.62958	-517.77289	-72.70827	142.81485	-549.86456	-26.33379	163.54768	-798.72278	182.08824	181.25581				-794.41071	34.21216	172.73352	-799.16748	72.96158	567.12598	-836.12848	-49.88946	472.77988	-599.09692	26.02028	166.38545	-762.55969	-24.24345	202.52235	-875.78961	-78.57214	141.09050	-850.68036	-75.26379	859.50208	-842.12939	-66.97235	744.35272	-606.22925	-75.69695	156.87358	-648.10693	-68.68001	160.85887	-355.27792	-56.74112	1147.81201							-820.24323	-36.60153	607.22913	-815.94562	-34.84764	560.04840	
121	2.400	-373.66858	268.00443	1140.79126	-767.61780	233.92311	997.34589	-869.93018	290.97452	863.43750	-760.51434	-6.31043	804.65192	-763.32062	209.28952	812.14215	-844.53107	284.41638	727.92078	-847.55444	256.62582	624.19739	-798.71423	146.80157	570.90918	-934.77570	93.53134	1097.94922	-831.63379	251.77487	562.54279	-756.55444	17.03969	525.21716	-851.70526	265.41299	483.01486	-770.09076	208.38521	535.95630	-773.62769	-10.45342	976.98480	-721.82855	158.47655	221.77156	-773.00049	231.69652	201.13489	-882.61780	295.96866	144.49666	-673.42157	51.01097	162.24001	-676.76904	176.15800	162.19002	-593.84387	219.41370	173.53133	-660.02594	298.82895	156.41168	-623.30432	307.02481	158.36897	-557.49420	254.08963	163.41246	-527.99890	304.02396	146.24170	-123.89317	124.45581	1295.55103	-726.66187	64.78547	218.98206	-517.90100	-72.96151	142.83015	-549.88019	-26.51239	163.58360	-798.63794	181.93597	181.13474				-794.15826	34.60705	172.08687	-799.79370	73.11293	566.96332	-836.38354	-49.86974	472.67548	-599.15442	26.13471	166.39116	-762.57593	-24.26817	202.54124	-875.80023	-78.62018	141.04199	-850.95685	-75.28554	859.22003	-842.74799	-67.06129	744.11163	-606.23297	-75.82056	157.16991	-648.04657	-68.64867	160.94797	-355.45721	-56.40822	1146.72034							-820.72711	-36.60136	607.44733	-816.02942	-34.80993	559.96619	
122	2.420	-373.84946	268.27444	1140.12268	-768.59235	233.51764	996.97284	-870.51563	290.80276	863.34198	-761.27228	-6.31199	804.72467	-763.48035	209.40825	812.12634	-845.06213	283.90091	727.63806	-848.16589	257.07654	624.07452	-799.09509	146.61263	570.52509	-935.37170	93.15598	1097.59204	-832.33099	252.19067	562.82776	-756.60443	16.96949	525.35461	-851.91718	265.53906	482.95691	-770.80609	208.32515	535.88708	-774.87878	-10.17442	976.26324	-721.76758	158.70554	222.12437	-773.32227	231.89226	201.26134	-882.63379	295.99463	144.58681	-673.42157	51.01097	162.24001	-676.71271	176.12680	162.82925	-593.93768	219.47134	173.52184	-659.92126	298.76056	156.42661	-623.28528	307.07150	158.27806	-557.42523	254.08025	163.48494	-528.06470	304.12994	146.23686	-124.60751	124.07188	1294.88501	-726.62903	64.65938	219.11275	-517.85547	-72.83266	142.84877	-549.92230	-26.45642	163.55190	-798.72278	182.08824	181.25581				-794.18121	34.67198	172.11169	-800.38147	72.93523	566.68304	-836.56738	-49.71750	472.27594	-599.10437	26.19950	166.15247	-762.66333	-24.18385	202.44682	-876.04169	-78.95963	141.37299	-852.10480	-75.42543	858.88489	-843.08429	-67.09470	743.97766	-606.29980	-75.61317	156.90636	-648.12097	-68.52166	160.81642										-821.31860	-36.66676	606.98694	-816.51807	-34.63890	559.49963	
123	2.440	-374.89020	267.22534	1138.12952	-769.46240	233.22389	996.84857	-871.19098	290.55481	863.24933	-761.95038	-6.54349	804.63879	-763.83868	209.60721	812.18109	-846.06592	283.98660	727.97241	-848.46680	256.64618	623.97028	-799.24939	146.66196	570.63898	-936.44818	93.25999	1097.28857	-832.69019	252.37636	562.77875	-756.65399	16.66079	525.29041	-852.33582	265.67517	482.98755	-770.95984	208.22882	535.98059	-775.43896	-10.45540	976.10736	-721.85229	158.70531	222.02348	-773.34869	231.62737	201.14240	-882.64227	296.02014	144.54268	-673.42157	51.01097	162.24001	-676.94611	176.22354	162.47783	-593.93518	219.55383	173.48862	-660.02594	298.82895	156.41168	-623.11053	306.85019	158.41661	-557.66968	253.99751	163.45674	-527.94812	303.98865	146.28252	-125.65828	124.02936	1293.93420				-517.72864	-72.69049	142.74594	-549.82251	-26.38976	163.57941	-798.74561	182.07495	181.25441	-726.96179	64.15253	218.74449	-794.41071	34.21216	172.73352	-801.18573	72.48409	566.48724	-837.11090	-50.02309	472.14523	-598.89728	26.42993	166.24635	-762.59375	-24.25133	202.44550	-875.80023	-78.62018	141.04199	-852.82849	-75.36688	858.44409	-843.98370	-67.18826	743.55957	-606.28314	-75.80433	157.16008	-648.04242	-68.55301	160.86890	-355.50015	-56.62620	1144.69287							-821.77759	-36.78858	606.76752	-816.92975	-35.05454	559.53314	
